<svg xmlns="http://www.w3.org/2000/svg" width="15.499" height="16.977" viewBox="0 0 15.499 16.977">
  <path id="account" d="M-13658.712-3179.547a1.533,1.533,0,0,1-1.289-1.515v-1.19a3.749,3.749,0,0,1,3.751-3.747h.339a1.732,1.732,0,0,1,.546.086l.867.281a7.2,7.2,0,0,0,4.5,0l.868-.281a1.7,1.7,0,0,1,.541-.086h.343a3.745,3.745,0,0,1,3.747,3.747v1.19a1.532,1.532,0,0,1-1.289,1.515,40.021,40.021,0,0,1-6.46.525A40.033,40.033,0,0,1-13658.712-3179.547Zm.213-2.7v1.19a.036.036,0,0,0,.031.038,38.611,38.611,0,0,0,12.438,0,.04.04,0,0,0,.03-.038v-1.19a2.25,2.25,0,0,0-2.249-2.249h-.343a.2.2,0,0,0-.075.014l-.867.281a8.751,8.751,0,0,1-5.431,0l-.867-.281a.2.2,0,0,0-.079-.014h-.339A2.248,2.248,0,0,0-13658.5-3182.251Zm2-9.5a4.249,4.249,0,0,1,4.251-4.248,4.252,4.252,0,0,1,4.251,4.248,4.253,4.253,0,0,1-4.251,4.251A4.25,4.25,0,0,1-13656.5-3191.751Zm1.5,0a2.749,2.749,0,0,0,2.75,2.75,2.749,2.749,0,0,0,2.749-2.75,2.749,2.749,0,0,0-2.749-2.75A2.749,2.749,0,0,0-13655-3191.751Z" transform="translate(13660.001 3195.999)" fill="#7f8da0"/>
</svg>
