<svg xmlns="http://www.w3.org/2000/svg" width="18" height="14" viewBox="0 0 18 14">
  <path id="Shape" d="M13.5,14a2.506,2.506,0,0,1-2.45-2H6.95a2.5,2.5,0,0,1-4.9,0H2a2,2,0,0,1-2-2V2A2,2,0,0,1,2,0h8a2,2,0,0,1,2,2h2.766a1.99,1.99,0,0,1,1.791,1.11l1.235,2.484a2.017,2.017,0,0,1,.209.89V10a2,2,0,0,1-2,2h-.05A2.507,2.507,0,0,1,13.5,14Zm0-3.5a1,1,0,1,0,1,1A1,1,0,0,0,13.5,10.5Zm-9,0a1,1,0,1,0,1,1A1,1,0,0,0,4.5,10.5ZM4.5,9a2.5,2.5,0,0,1,2.292,1.5H10.5v-8a1,1,0,0,0-1-1h-7a1,1,0,0,0-.994.883L1.5,2.5v7a1,1,0,0,0,.725.961A2.509,2.509,0,0,1,4.5,9Zm9,0a2.509,2.509,0,0,1,2.274,1.46,1,1,0,0,0,.719-.843L16.5,9.5v-2h-4V9.208A2.477,2.477,0,0,1,13.5,9Zm-1-5.5V6h4L15.448,4.029a1,1,0,0,0-.882-.529Z" transform="translate(0 0)" fill="#7f8da0"/>
</svg>
