<svg xmlns="http://www.w3.org/2000/svg" width="16" height="18" viewBox="0 0 16 18">
  <path id="Icons_Small_Download" data-name="Icons / Small / Download" d="M14,18H2a2,2,0,0,1-2-2V2A2,2,0,0,1,2,0H14a2,2,0,0,1,2,2V16A2,2,0,0,1,14,18ZM2.5,1.5a1,1,0,0,0-.994.883L1.5,2.5v13a1,1,0,0,0,.883.994L2.5,16.5h11a1,1,0,0,0,.994-.883L14.5,15.5V2.5a1,1,0,0,0-.883-.994L13.5,1.5Zm8.751,12h-6.5a.75.75,0,1,1,0-1.5h6.5a.75.75,0,1,1,0,1.5ZM8.005,11.015a.753.753,0,0,1-.616-.322L5.707,9.008A.75.75,0,0,1,6.768,7.947l.486.487V4.757a.75.75,0,1,1,1.5,0V8.429l.483-.482A.75.75,0,0,1,10.3,9.008L8.633,10.675A.745.745,0,0,1,8.005,11.015Z" fill="#7f8da0"/>
</svg>
