<svg id="Icons_Small_Logout" data-name="Icons / Small / Logout" xmlns="http://www.w3.org/2000/svg" width="16" height="18" viewBox="0 0 16 18">
  <path id="Icons_Small_Logout-2" data-name="Icons / Small / Logout" d="M6.012,18a2.008,2.008,0,0,1-1.056-.3l-4-2.472A1.991,1.991,0,0,1,0,13.523V2.005A2.009,2.009,0,0,1,2.008,0h9.035A2.008,2.008,0,0,1,13.05,2.005V3.258a.753.753,0,0,1-1.506,0V2.73c.007-1-.344-1.185-1.083-1.215l-.278,0L10.039,1.5H5.216l1.767.973A2,2,0,0,1,8.02,4.233v9.3h2.019c.525,0,1.418-.137,1.506-1.058l.007-.145,0-.553a.749.749,0,0,1,.644-.744l.105-.007a.753.753,0,0,1,.752.752v1.254a2.008,2.008,0,0,1-2.007,2H8.02v.958A2.009,2.009,0,0,1,6.012,18ZM2.51,1.763a1.009,1.009,0,0,0-.532.151,1.5,1.5,0,0,0-.465.949l-.007.144v10.31a1.006,1.006,0,0,0,.4.8l.1.066L5.012,15.95A1,1,0,0,0,6.519,15.2l.006-.117V4.62a1,1,0,0,0-.371-.778l-.106-.075L3.037,1.912A1.006,1.006,0,0,0,2.51,1.763Zm10.8,8.216a.752.752,0,0,1-.532-1.284l.7-.7H10.3c-.471,0-.752-.226-.752-.6a.668.668,0,0,1,.752-.647h3.2l-.511-.51a.752.752,0,0,1,1.065-1.063l1.775,1.772a.526.526,0,0,1,.047.747l-.053.069-.366.373-1.6,1.626A.75.75,0,0,1,13.312,9.979Z" fill="#7f8da0"/>
</svg>
