<svg id="Icons_Small_Notification" data-name="Icons / Small / Notification" xmlns="http://www.w3.org/2000/svg" width="17" height="18" viewBox="0 0 17 18">
  <path id="Icons_Small_Notification-2" data-name="Icons / Small / Notification" d="M8.5,18a2,2,0,0,1-2-2,2.044,2.044,0,0,1,.063-.5H.75a.75.75,0,0,1,0-1.5H1.5V8.5a7,7,0,0,1,6-6.929V1a1,1,0,0,1,2,0v.572a7,7,0,0,1,6,6.928V14h.751a.75.75,0,1,1,0,1.5H10.437a2.047,2.047,0,0,1,.063.5A2,2,0,0,1,8.5,18Zm0-15A5.483,5.483,0,0,0,3,8.279L3,8.5V14H14V8.5A5.507,5.507,0,0,0,8.5,3Z" fill="#7f8da0"/>
</svg>
