<svg id="Icon_Small_Lock" data-name="Icon / Small / Lock" xmlns="http://www.w3.org/2000/svg" width="16" height="18" viewBox="0 0 16 18">
  <path id="Icons_Small_Order" data-name="Icons / Small / Order" d="M14,18H2a2,2,0,0,1-2-2V2A2,2,0,0,1,2,0H14a2,2,0,0,1,2,2V16A2,2,0,0,1,14,18ZM3,1.5A1.493,1.493,0,0,0,1.507,2.856L1.5,3V15a1.493,1.493,0,0,0,1.355,1.493L3,16.5H13a1.492,1.492,0,0,0,1.493-1.355L14.5,15V3a1.493,1.493,0,0,0-1.355-1.493L13,1.5Zm4.251,11H3.75a.75.75,0,1,1,0-1.5h3.5a.75.75,0,0,1,0,1.5Zm5-3H3.75a.75.75,0,1,1,0-1.5h8.5a.75.75,0,0,1,0,1.5Zm0-3H3.75a.75.75,0,1,1,0-1.5h8.5a.75.75,0,0,1,0,1.5Z" fill="#7f8da0"/>
</svg>
