<svg id="Icons_Small_Order" data-name="Icons / Small / Order" xmlns="http://www.w3.org/2000/svg" width="18" height="14" viewBox="0 0 18 14">
  <path id="Icons_Small_Bank_Card" data-name="Icons / Small / Bank Card" d="M16,14H2A2.007,2.007,0,0,1,.005,12.149L0,12V2A2,2,0,0,1,2,0H16a2,2,0,0,1,2,2V12a2.006,2.006,0,0,1-1.85,1.994ZM1.5,5v6.5a1,1,0,0,0,1,1h13a1,1,0,0,0,1-1V5Zm1-3.5a1,1,0,0,0-.994.883L1.5,2.5v1h15v-1a1,1,0,0,0-1-1Zm3,7h-2A.5.5,0,0,1,3,8V7a.5.5,0,0,1,.5-.5h2A.5.5,0,0,1,6,7V8A.5.5,0,0,1,5.5,8.5Z" fill="#7f8da0"/>
</svg>
