<svg xmlns="http://www.w3.org/2000/svg" width="275" height="60" viewBox="0 0 275 60">
  <g id="right-header-2" transform="translate(-315 -583)">
    <rect id="Rectangle_16" data-name="Rectangle 16" width="275" height="60" transform="translate(315 583)" fill="rgba(255,255,255,0)"/>
    <g id="Group_74474" data-name="Group 74474" transform="translate(0 2)">
      <path id="Path_94" data-name="Path 94" d="M-20.516,0l-.007-10.913h1.97l.007,9.258h4.8L-13.734,0ZM-7.527.146A4.987,4.987,0,0,1-10.094-.52a4.674,4.674,0,0,1-1.794-1.919,6.417,6.417,0,0,1-.656-3.01,6.457,6.457,0,0,1,.656-3.021,4.669,4.669,0,0,1,1.794-1.923,4.987,4.987,0,0,1,2.567-.667,4.943,4.943,0,0,1,2.563.667A4.717,4.717,0,0,1-3.177-8.47a6.427,6.427,0,0,1,.659,3.021,6.388,6.388,0,0,1-.659,3.01A4.722,4.722,0,0,1-4.964-.52,4.943,4.943,0,0,1-7.527.146Zm0-1.772A2.827,2.827,0,0,0-5.96-2.065,2.932,2.932,0,0,0-4.89-3.358,5.036,5.036,0,0,0-4.5-5.449a5.082,5.082,0,0,0-.388-2.1,2.929,2.929,0,0,0-1.069-1.3,2.827,2.827,0,0,0-1.567-.439A2.845,2.845,0,0,0-9.1-8.848a2.92,2.92,0,0,0-1.073,1.3,5.082,5.082,0,0,0-.388,2.1,5.036,5.036,0,0,0,.388,2.091A2.923,2.923,0,0,0-9.1-2.065,2.845,2.845,0,0,0-7.527-1.626ZM4.319.146a5.045,5.045,0,0,1-2.64-.681A4.653,4.653,0,0,1-.1-2.468,6.484,6.484,0,0,1-.735-5.442,6.462,6.462,0,0,1-.079-8.459,4.713,4.713,0,0,1,1.7-10.389a4.908,4.908,0,0,1,2.556-.67,5.24,5.24,0,0,1,1.688.264,4.506,4.506,0,0,1,1.388.751,4.184,4.184,0,0,1,1,1.154A4.219,4.219,0,0,1,8.86-7.427H6.846A2.91,2.91,0,0,0,6.483-8.2a2.415,2.415,0,0,0-.557-.59,2.345,2.345,0,0,0-.736-.37,3.118,3.118,0,0,0-.908-.125,2.82,2.82,0,0,0-1.56.443,2.961,2.961,0,0,0-1.08,1.3A4.975,4.975,0,0,0,1.25-5.464a5.062,5.062,0,0,0,.388,2.095,2.917,2.917,0,0,0,1.084,1.3,2.935,2.935,0,0,0,1.611.443,3.052,3.052,0,0,0,1.436-.319,2.249,2.249,0,0,0,.938-.9,2.778,2.778,0,0,0,.33-1.384l.454.073H4.524V-5.706H8.955v1.3a4.732,4.732,0,0,1-.593,2.424A4.045,4.045,0,0,1,6.718-.406,5.074,5.074,0,0,1,4.319.146Zm11.473,0A4.987,4.987,0,0,1,13.225-.52,4.674,4.674,0,0,1,11.43-2.439a6.417,6.417,0,0,1-.656-3.01A6.457,6.457,0,0,1,11.43-8.47a4.669,4.669,0,0,1,1.794-1.923,4.987,4.987,0,0,1,2.567-.667,4.943,4.943,0,0,1,2.563.667A4.717,4.717,0,0,1,20.142-8.47,6.427,6.427,0,0,1,20.8-5.449a6.388,6.388,0,0,1-.659,3.01A4.722,4.722,0,0,1,18.355-.52,4.943,4.943,0,0,1,15.792.146Zm0-1.772a2.827,2.827,0,0,0,1.567-.439,2.932,2.932,0,0,0,1.069-1.293,5.036,5.036,0,0,0,.388-2.091,5.082,5.082,0,0,0-.388-2.1,2.929,2.929,0,0,0-1.069-1.3,2.827,2.827,0,0,0-1.567-.439,2.845,2.845,0,0,0-1.571.439,2.92,2.92,0,0,0-1.073,1.3,5.082,5.082,0,0,0-.388,2.1,5.036,5.036,0,0,0,.388,2.091,2.923,2.923,0,0,0,1.073,1.293A2.845,2.845,0,0,0,15.792-1.626Z" transform="translate(554.523 616.06)" fill="#7d7d80"/>
      <g id="Group_74473" data-name="Group 74473" transform="translate(-57 -1)">
        <path id="Path_95" data-name="Path 95" d="M-4655-4390v-2h30v2Zm-38,0v-2h30v2Zm-38,0v-2h30v2Zm-38,0v-2h30v2Z" transform="translate(5156 5004)" fill="#7d7d80"/>
      </g>
    </g>
  </g>
</svg>
